<?xml version="1.0" encoding="UTF-8"?>
<svg version="1.1" xmlns="http://www.w3.org/2000/svg" width="500" height="500">
<path d="M0 0 C9.65762798 8.7563797 13.87002702 23.14328575 18.70581055 35.00244141 C20.54762592 39.51805422 22.4077667 44.02612594 24.265625 48.53515625 C24.84570312 49.9447612 24.84570312 49.9447612 25.4375 51.38284302 C29.72343279 61.78408905 34.11003861 72.14233829 38.5 82.5 C43.30041963 93.82715607 48.08214396 105.16067036 52.76953125 116.53515625 C53.15474945 117.46907196 53.53996765 118.40298767 53.93685913 119.36520386 C55.76235175 123.79301613 57.58266957 128.22284286 59.39453125 132.65625 C60.0506375 134.25136122 60.70688022 135.84641631 61.36328125 137.44140625 C61.64379837 138.13331558 61.92431549 138.82522491 62.21333313 139.5381012 C64.83921957 145.89755085 67.89351429 151.78702857 71 158 C77.6 174.17 84.2 190.34 91 207 C139.18 207.33 187.36 207.66 237 208 C238.485 203.545 238.485 203.545 240 199 C240.67242398 197.16582865 241.35878036 195.33664011 242.06542969 193.51538086 C242.44302429 192.54084457 242.8206189 191.56630829 243.20965576 190.5622406 C244.92810588 186.17135007 246.65289285 181.78303657 248.38671875 177.39819336 C249.29522537 175.0919467 250.19693111 172.7830093 251.09179688 170.47143555 C252.39420129 167.10856422 253.71816124 163.75489325 255.046875 160.40234375 C255.43881042 159.37817856 255.83074585 158.35401337 256.23455811 157.29881287 C259.28586044 149.70280574 263.06724997 143.59110875 270 139.0234375 C273.48361026 137.83501837 276.32207125 137.6008031 280 137.625 C281.7634375 137.61339844 281.7634375 137.61339844 283.5625 137.6015625 C290.48745152 138.40422733 294.2470398 141.78463645 298.51953125 146.953125 C302.02131614 151.7946429 302.24786031 156.17547482 302 162 C299.14919131 172.91676974 293.95293514 183.46714112 289.53317261 193.82623291 C287.84432403 197.7849085 286.16448642 201.74738871 284.48408508 205.70965576 C283.61185667 207.76619047 282.73920395 209.82254528 281.86613464 211.87872314 C277.5219677 222.11303438 273.22529767 232.3669723 268.9375 242.625 C268.19177035 244.40797512 267.44600202 246.19093406 266.70019531 247.97387695 C264.46602072 253.31559361 262.23290574 258.65775285 260 264 C257.02178788 271.12539941 254.04294506 278.25053426 251.0625 285.375 C250.69277069 286.25883362 250.32304138 287.14266724 249.94210815 288.05328369 C243.76093175 302.8257691 237.53851189 317.58060244 231.30352783 332.33044434 C225.86552089 345.19633181 220.44605446 358.0697636 215.05459595 370.95523071 C213.94463328 373.60795204 212.8340348 376.26040656 211.72338867 378.9128418 C208.25359883 387.20254674 204.79177833 395.49544319 201.34806824 403.79602051 C199.72869742 407.69775123 198.10562267 411.59793611 196.48220825 415.49798584 C195.71625171 417.34100569 194.95208337 419.18476997 194.18991089 421.02935791 C181.16232047 452.55587153 181.16232047 452.55587153 173.89453125 456.30078125 C167.65211999 458.60468149 161.65956285 458.85646939 155.3125 456.8125 C148.37615906 453.01714364 145.12598851 449.32506419 142.0546875 442.2109375 C141.71782928 441.4629892 141.38097107 440.71504089 141.03390503 439.94442749 C140.002957 437.63765895 138.99739628 435.32145073 138 433 C137.70420044 432.3155481 137.40840088 431.63109619 137.1036377 430.92590332 C135.37081686 426.89747147 133.68389014 422.85121652 132.01693726 418.7951355 C130.75094691 415.71490695 129.47541093 412.63865115 128.20091248 409.56193542 C127.51892343 407.91517192 126.83742029 406.26820711 126.15638733 404.62104797 C121.8260869 394.14976291 117.44196995 383.70101487 113.06121826 373.25076294 C111.92474524 370.53964715 110.78846989 367.82844867 109.65234375 365.1171875 C109.27412476 364.21465744 108.89590576 363.31212738 108.50622559 362.38224792 C106.09675257 356.62900411 103.69713963 350.87173813 101.30415344 345.11161804 C99.67931323 341.20122094 98.05137818 337.29211552 96.42324829 333.38308716 C95.65248529 331.53010836 94.88321251 329.67650885 94.11557007 327.82223511 C89.41914025 316.36213764 89.41914025 316.36213764 84.0625 305.203125 C79.75151707 296.82806622 76.43664253 288.00019358 72.96679688 279.25317383 C71.7448697 276.17457441 70.51365763 273.0998075 69.28125 270.02539062 C68.49424344 268.05230192 67.70776627 266.07900195 66.921875 264.10546875 C66.55729187 263.19492233 66.19270874 262.28437592 65.81707764 261.34623718 C65.47622131 260.48456436 65.13536499 259.62289154 64.78417969 258.73510742 C64.33833527 257.61358528 64.33833527 257.61358528 63.88348389 256.46940613 C62.7719875 253.36268735 61.90646008 250.17261026 61 247 C12.82 247.33 -35.36 247.66 -85 248 C-95.56670301 273.67921564 -95.56670301 273.67921564 -105.9375 299.4375 C-108.98453418 306.51995373 -112.07083218 312.04842638 -119 316 C-125.00126689 318.0004223 -132.51692567 318.20236157 -138.5234375 316.12890625 C-143.45730885 313.2460887 -147.88991634 308.78737433 -149.5300293 303.19165039 C-151.76715339 292.75909818 -148.252196 284.40300359 -144.125 275 C-143.49247951 273.51834327 -142.86200271 272.03581269 -142.23339844 270.55249023 C-140.88059998 267.36674815 -139.51758778 264.18565064 -138.14746094 261.00732422 C-135.96200453 255.92681689 -133.82343564 250.82740217 -131.6953125 245.72265625 C-131.33334274 244.85455322 -130.97137299 243.9864502 -130.59843445 243.09204102 C-129.85777543 241.31548075 -129.11719069 239.53888952 -128.37667847 237.76226807 C-126.4693403 233.1918686 -124.5527954 228.62533498 -122.63671875 224.05859375 C-119.5931323 216.80266769 -116.55390205 209.54494102 -113.51953125 202.28515625 C-105.48452219 183.06421247 -97.41494015 163.85838569 -89.30352783 144.66955566 C-83.48994223 130.91507926 -77.70040794 117.15078722 -71.9375 103.375 C-71.57001648 102.49665497 -71.20253296 101.61830994 -70.82391357 100.71334839 C-67.43280445 92.60725498 -64.04405511 84.5001766 -60.65771484 76.39208984 C-55.78031317 64.71426974 -50.89549834 53.03961252 -45.99530029 41.37133789 C-45.03880621 39.09245715 -44.08392392 36.81290736 -43.12939453 34.53320312 C-41.49096753 30.62251762 -39.84040031 26.71709011 -38.1875 22.8125 C-37.72617676 21.70914307 -37.26485352 20.60578613 -36.78955078 19.46899414 C-29.54467271 2.45393454 -29.54467271 2.45393454 -21 -2 C-14.08201027 -4.17660198 -6.28678383 -3.74395866 0 0 Z " fill="#2D54A5" transform="translate(174,22)"/>
</svg>
